<svg width="70px" height="59px" viewBox="0 0 70 59" version="1.1" xmlns="http://www.w3.org/2000/svg" xmlns:xlink="http://www.w3.org/1999/xlink" xmlns:sketch="http://www.bohemiancoding.com/sketch/ns" preserveAspectRatio="none meet" style="position: absolute; width: 265px; height: 436px; opacity: 0.9;">
    <!-- Generator: Sketch 3.4.3 (16044) - http://www.bohemiancoding.com/sketch -->
    <title>shape32</title>
    <desc>Created with Sketch.</desc>
    <defs></defs>
    <g id="Page-1" stroke="none" stroke-width="1" fill="none" fill-rule="evenodd" sketch:type="MSPage">
        <path class="color1-fill" d="M0,0 L0,57.3051941 L1.34687401,58.4022004 L3.77213583,56.4817518 L6.1349836,58.405374 L8.55897599,56.4847138 L10.9222469,58.4077013 L13.3462393,56.4868296 L15.7088755,58.4093938 L18.1165767,56.4180683 L20.8071512,58.3581932 L23.2315667,56.4544589 L25.5944145,58.3778695 L28.01883,56.4578441 L30.3810431,58.3812546 L32.803766,56.4608061 L35.1666138,58.3840051 L37.5918756,56.4639797 L39.9526076,58.3873902 L42.378081,56.4673649 L44.7394478,58.3901407 L47.1653443,56.4696922 L49.5275574,58.3935259 L51.9519729,56.4735005 L54.3137628,58.3964879 L56.7383899,56.4764625 L59.0997567,58.3992383 L61.5250185,56.4794245 L63.8868084,58.4026235 L66.3114355,56.4819634 L68.6742833,58.4055855 L70,57.3547022 L70,0 L0,0" id="shape32" fill="#21d4d8" sketch:type="MSShapeGroup"></path>
    </g>
</svg>