<svg width="70px" height="70px" viewBox="0 0 70 70" version="1.1" xmlns="http://www.w3.org/2000/svg" xmlns:xlink="http://www.w3.org/1999/xlink" xmlns:sketch="http://www.bohemiancoding.com/sketch/ns" preserveAspectRatio="none meet" style="position: absolute; width: 79px; height: 79px; opacity: 1;">
    <!-- Generator: Sketch 3.4.3 (16044) - http://www.bohemiancoding.com/sketch -->
    <title>shape38</title>
    <desc>Created with Sketch.</desc>
    <defs></defs>
    <g id="Page-1" stroke="none" stroke-width="1" fill="none" fill-rule="evenodd" sketch:type="MSPage">
        <g id="shape38" sketch:type="MSLayerGroup">
            <circle class="color1-fill" id="Oval-204" fill="#FFFFFF" sketch:type="MSShapeGroup" cx="35" cy="35" r="35"></circle>
            <path class="color2-fill" d="M70,35 C70,15.6702518 54.330086,4.97379915e-14 35.0002176,4.97379915e-14 C15.6703492,4.97379915e-14 0,15.6702518 0,35 C0,54.3301834 15.6703492,70 35.0002176,70 C54.330086,70 70,54.3301834 70,35 Z M67.0936655,35.8917003 L67.4161418,35.5844576 L67.1097675,35.2676407 C67.1097675,35.1697233 67.1167306,35.073982 67.1167306,34.9764998 C67.1167306,34.4338203 67.1014989,33.8933168 67.0758227,33.3567299 L67.3630486,33.030774 L67.030998,32.739198 C66.9861734,32.1033882 66.9235059,31.4741063 66.8421252,30.8500466 L67.1128139,30.4927572 L66.7650965,30.2264221 C66.6684841,29.5932235 66.5575105,28.9648119 66.4260828,28.3437986 L66.6610859,27.9760647 L66.2859514,27.7341001 C66.1432088,27.1187442 65.9852346,26.5081753 65.8085471,25.9045695 L66.0165683,25.5172521 L65.6336005,25.310973 C65.4416813,24.7004041 65.2253915,24.1015853 64.9999627,23.5097296 L65.1775205,23.1019583 L64.7697468,22.9265776 C64.5312622,22.3355922 64.2792868,21.7541809 64.0068574,21.182779 L64.1482944,20.7710911 L63.7313816,20.6257383 C63.4450261,20.058253 63.1447444,19.5003419 62.8279256,18.9524402 L62.9380288,18.5242151 L62.5189401,18.4158533 C62.1895007,17.8653404 61.8383018,17.3304942 61.4770934,16.8034815 L61.5519462,16.3726453 L61.1145795,16.2938763 C60.7446674,15.779484 60.365181,15.275101 59.9669815,14.7829033 L60.009195,14.3459745 L59.5709579,14.3050668 C59.1614433,13.8185266 58.7375675,13.3476531 58.2993304,12.8859186 L58.3058583,12.4407212 L57.8697971,12.4350637 C57.4198099,11.9802922 56.9602484,11.5377059 56.4863257,11.1081753 L56.4576031,10.6799503 L56.019366,10.7051912 C55.540221,10.2900218 55.0484554,9.88529686 54.5427637,9.49884986 L54.479661,9.06279142 L54.0496926,9.121977 C53.537473,8.74292819 53.0108922,8.38563879 52.4747372,8.03879391 L52.3803008,7.60273547 L51.9494619,7.69934722 C51.4111309,7.36338203 50.8667073,7.03873174 50.3083575,6.73453528 L50.1782355,6.32067143 L49.7543597,6.45079266 C49.1903524,6.15834629 48.6180766,5.88374262 48.0353561,5.62350016 L47.8752059,5.2170345 L47.4787471,5.37457258 C46.8934156,5.12695058 46.298945,4.90413429 45.6966409,4.69002176 L45.5034162,4.29617656 L45.1073926,4.49201119 C44.5029127,4.29095431 43.8936456,4.10382344 43.2752395,3.94019273 L43.052857,3.56680137 L42.6781578,3.7878769 C42.0675851,3.63773702 41.4465679,3.50892136 40.821634,3.39403171 L40.566177,3.03195524 L40.2075798,3.2847995 C39.5809051,3.18122474 38.9494433,3.09288157 38.3118888,3.02890892 L38.0333667,2.69294374 L37.6921771,2.97973267 C37.0633265,2.92707491 36.4292535,2.89313025 35.7903935,2.8765931 L35.4783617,2.5558595 L35.1654595,2.86310227 C35.1088847,2.86310227 35.0531803,2.8583152 34.9970407,2.8583152 C34.4104035,2.8583152 33.8276831,2.87615791 33.2493146,2.90662108 L32.926403,2.62070252 L32.63439,2.95449176 C31.9977059,2.99931613 31.3684201,3.06546472 30.7421806,3.1464097 L30.3831482,2.8765931 L30.1255152,3.22604911 C29.4888311,3.32179049 28.8625916,3.44233758 28.2389633,3.57637551 L27.8703567,3.34354989 L27.6336129,3.71694125 C27.0121605,3.86142369 26.3968007,4.02200808 25.79058,4.20435188 L25.4019546,3.99894311 L25.1987205,4.38539012 C24.5951109,4.5790488 24.0023811,4.79229095 23.4148736,5.01858875 L23.0057943,4.84059683 L22.829542,5.24880323 C22.2359418,5.49294374 21.6479991,5.74709357 21.0713713,6.02517874 L20.6653383,5.88765931 L20.5243365,6.30543985 C20.1100349,6.5152005 19.7005204,6.73192415 19.2966633,6.95909232 L18.8706116,6.84637861 L18.7561564,7.26938141 C18.2056401,7.59359652 17.6633924,7.92738576 17.1342004,8.28162885 L16.709019,8.20111906 L16.6293791,8.63543674 C16.1058446,8.99968915 15.5931899,9.38178427 15.0953316,9.7782406 L14.6588353,9.7308051 L14.6135755,10.1555486 C14.1196339,10.5602735 13.6409241,10.9841467 13.1735292,11.4188996 L12.7335513,11.4080199 L12.721366,11.8484302 C12.2635453,12.2910165 11.815734,12.7423065 11.38446,13.2096985 L10.9470932,13.234069 L10.969288,13.6723034 C10.5462825,14.1453528 10.1419903,14.6353746 9.74901305,15.1349705 L9.30772961,15.194156 L9.36386922,15.6254274 C8.98220691,16.1298104 8.6153411,16.6481194 8.26196619,17.1742617 L7.8324329,17.2639105 L7.92469335,17.7021449 C7.58437416,18.2365558 7.25449956,18.7788001 6.9463845,19.331489 L6.51815678,19.4598694 L6.64305653,19.8828722 C6.34364528,20.4429593 6.064688,21.0134908 5.79835125,21.5944669 L5.39144788,21.7524402 L5.54419984,22.1576002 C5.291354,22.7390115 5.04764717,23.3273858 4.82831102,23.9266397 L4.44186162,24.1089835 L4.63247518,24.505875 C4.42619475,25.105129 4.23645158,25.7100404 4.06759756,26.3236556 L3.68201854,26.5469071 L3.89656759,26.9189929 C3.73815815,27.5352191 3.60150825,28.1592788 3.47834926,28.7881256 L3.11931687,29.0357476 L3.3678108,29.4013056 C3.25988349,30.020143 3.16762305,30.6437675 3.09494619,31.2760957 L2.74635839,31.5598384 L3.02705643,31.9005906 C2.96612972,32.5298726 2.93000889,33.1665527 2.9060734,33.8049736 L2.58403223,34.1122164 L2.88953615,34.437737 C2.88736019,34.6179049 2.87648043,34.7954616 2.87648043,34.9764998 C2.87648043,35.4382344 2.89127691,35.895617 2.91173088,36.3508237 L2.62015306,36.6715574 L2.94306461,36.9631334 C2.9813614,37.6024246 3.04359368,38.2338825 3.11931687,38.8614237 L2.8494986,39.2078334 L3.19678083,39.47765 C3.28643013,40.111719 3.38826477,40.7405657 3.51359971,41.3624495 L3.27729112,41.7249611 L3.64850885,41.9660553 C3.78602913,42.5883743 3.94269781,43.2002487 4.11546855,43.8090768 L3.90222507,44.202922 L4.28823928,44.4131178 C4.47450093,45.0184644 4.6786054,45.6172832 4.89924712,46.2065278 L4.7212541,46.6138638 L5.13033342,46.7931613 C5.36403086,47.3854523 5.61295998,47.9694747 5.88147269,48.5426173 L5.73655416,48.9551756 L6.14563348,49.0987877 C6.4276371,49.6745415 6.72878911,50.2350637 7.04430242,50.7921044 L6.93071763,51.2220703 L7.35720458,51.3360895 C7.68011613,51.880945 8.01303707,52.4184022 8.36641198,52.9388872 L8.28807764,53.3653715 L8.72544436,53.4450109 C9.09013423,53.9628847 9.47049096,54.4737955 9.86520898,54.9668635 L9.82125472,55.409885 L10.2512232,55.4555797 C10.6603025,55.9451663 11.0854839,56.4216972 11.5206747,56.8864781 L11.5115357,57.3312403 L11.9532543,57.3412496 C12.3962785,57.7981971 12.8506177,58.2464408 13.3206237,58.6777122 L13.3454296,59.107678 L13.7832315,59.0833074 C14.2584598,59.5036991 14.7484846,59.9088592 15.2476484,60.2992229 L15.3042232,60.7352813 L15.7346269,60.6800124 C16.2468464,61.0651539 16.7716865,61.4289711 17.3069711,61.7840846 L17.3996668,62.2118744 L17.8322464,62.1209201 C18.3662255,62.4590612 18.9071676,62.7841467 19.4602951,63.0918247 L19.5860652,63.5109108 L20.0073299,63.3834007 C20.5691611,63.6797638 21.1362147,63.9569786 21.7158888,64.2207025 L21.8769094,64.6380479 L22.2885999,64.4800746 C22.8730611,64.7311781 23.4644853,64.9696612 24.0663542,65.1855145 L24.2556621,65.5832763 L24.6616951,65.3887473 C25.2557305,65.5902394 25.854553,65.7751943 26.4646905,65.9414361 L26.6888137,66.3261424 L27.0622074,66.1068076 C27.6775672,66.2643457 28.3011955,66.397078 28.9309166,66.5176251 L29.1815865,66.8753497 L29.54323,66.6264221 C30.1633768,66.7334784 30.7891812,66.8253031 31.4219485,66.894498 L31.703517,67.2356854 L32.0442713,66.9571651 C32.6744276,67.0154803 33.311982,67.0498601 33.9521477,67.0711843 L34.2633091,67.3949643 L34.584915,67.0859807 C34.7224353,67.0872863 34.8577797,67.0972956 34.9970407,67.0972956 C35.4992509,67.0972956 35.9940628,67.0846752 36.4901802,67.0616102 L36.8126566,67.3492695 L37.1051048,67.0215729 C37.7439648,66.98023 38.3767322,66.9188685 39.0047125,66.8396643 L39.3563466,67.1086105 L39.6205074,66.7622008 C40.2550156,66.6699409 40.8843014,66.5637551 41.506189,66.4353746 L41.8660918,66.6668946 L42.103706,66.2982903 C42.726464,66.1581598 43.3413885,65.9980106 43.9502204,65.8235002 L44.344068,66.0332608 L44.5481725,65.6524712 C45.156134,65.4631644 45.7558269,65.251663 46.3463808,65.0262356 L46.7463211,65.2037924 L46.9221382,64.7995026 C47.5174791,64.56189 48.1049867,64.3107864 48.6781329,64.0370532 L49.098092,64.1832763 L49.2447513,63.7641902 C49.8109345,63.4830588 50.3675435,63.1836494 50.9154487,62.8716195 L51.3423708,62.9847684 L51.45465,62.5604601 C52.0029904,62.2318931 52.540451,61.8894001 53.0683374,61.5303699 L53.4935188,61.6060926 L53.5727235,61.1726453 C54.0919061,60.8036058 54.5989033,60.4215107 55.0945856,60.024184 L55.5363042,60.0677028 L55.5785177,59.6312092 C56.0663666,59.223438 56.5389838,58.7973889 57.0028971,58.3635064 L57.4459213,58.3717749 L57.45419,57.9300591 C57.9093995,57.485732 58.3563404,57.0305253 58.7832626,56.5583463 L59.2184533,56.5313646 L59.1910363,56.0913895 C59.6075139,55.6131178 60.009195,55.1235312 60.3995611,54.6213242 L60.8421501,54.5595275 L60.7816586,54.1299969 C61.1602745,53.6199565 61.5210477,53.0959901 61.8678947,52.5633199 L62.2991688,52.4684489 L62.2034268,52.0389182 C62.5428756,51.499285 62.872315,50.9526888 63.1795597,50.3908611 L63.5925558,50.2663973 L63.4659152,49.8464408 C63.759669,49.2850482 64.0360151,48.7132111 64.2962592,48.1326702 L64.710996,47.9712154 L64.5521514,47.5647498 C64.8015157,46.9829033 65.0304261,46.3923531 65.2445399,45.790488 L65.6392579,45.600746 L65.4469036,45.1968915 C65.6457858,44.5980727 65.8329178,43.9940317 65.9987255,43.379111 L66.3803878,43.1536836 L66.1580053,42.7741996 C66.3094517,42.1658067 66.4413145,41.5482748 66.5575105,40.9276966 L66.9235059,40.6678893 L66.6676137,40.3040721 C66.7724947,39.6826236 66.8634496,39.0572583 66.9304689,38.4244949 L67.2677418,38.1429282 L66.9861734,37.8 C67.0405722,37.1694125 67.0758227,36.5336027 67.0936655,35.8917003 Z M10.0754061,16.5025925 C6.23484759,21.6682748 3.9618462,28.0685856 3.9618462,34.9998259 C3.9618462,52.1423189 17.8583578,66.0387442 35.000087,66.0387442 C52.1426866,66.0387442 66.0387631,52.1423189 66.0387631,34.9998259 C66.0387631,28.0685856 63.7657617,21.6682748 59.9252031,16.5025925 L10.0754061,16.5025925 Z M9.96543342,19.4559092 L9.61815119,19.2387504 L10.1329819,18.4275598 C10.4815697,17.9088157 10.8262408,17.4253217 11.1600321,16.9849114 L11.5199348,16.5262232 C11.6026211,16.4209077 11.6848721,16.3177681 11.7658176,16.2172397 L12.0848125,16.4740006 C12.0047374,16.5727883 11.9242271,16.6746223 11.841976,16.7790675 L11.4842492,17.2351445 C11.1569857,17.6664159 10.8171018,18.1438172 10.4759122,18.6516817 L9.96543342,19.4559092 L9.96543342,19.4559092 Z M61.0124402,21.1644576 C60.8518548,20.8637426 60.6882231,20.5695555 60.523721,20.2840721 L60.2003743,19.7248555 C59.9418709,19.29576 59.6494228,18.8449052 59.2821217,18.3091887 L59.0993416,18.0498166 L59.4318274,17.8113335 L59.6193946,18.0776686 C59.9919179,18.6203482 60.2882828,19.0777308 60.553314,19.5172707 L60.8779663,20.0795337 C61.0450795,20.3680634 61.2108872,20.6670376 61.3736486,20.9716693 L61.0124402,21.1644576 L61.0124402,21.1644576 Z M7.9108978,23.3913149 L7.71114524,23.3369164 L7.53445778,23.2294249 L7.84561918,22.533124 C8.11021517,21.9556295 8.36654253,21.4355797 8.62896257,20.9438172 L8.91314214,20.4289897 C9.00192106,20.2701461 9.0941815,20.1086913 9.19122904,19.9437551 L9.54416875,20.1513398 C9.44842679,20.3136649 9.35747191,20.4725085 9.27043376,20.6287411 L8.9906061,21.1366055 C8.73166759,21.621405 8.47925694,22.1340566 8.21770729,22.7037177 L7.9108978,23.3913149 L7.9108978,23.3913149 Z M62.8080374,25.2569661 C62.7196936,25.0093441 62.6222109,24.7447498 62.5125428,24.4570905 L62.3010401,23.9226795 C62.0673427,23.3421386 61.8393027,22.8207833 61.6042997,22.3277153 L61.3871395,21.8877401 L61.7522645,21.7032204 L61.9737766,22.1514641 C62.2122612,22.6519304 62.4437827,23.1811191 62.6809616,23.7690581 L62.8955107,24.3113025 C63.0060492,24.6024433 63.1044023,24.8692136 63.1936164,25.1198819 L62.8080374,25.2569661 L62.8080374,25.2569661 Z M6.46301811,27.651806 L6.06786489,27.5434442 L6.23889486,26.9206901 C6.38773011,26.3801865 6.55876008,25.8296736 6.76199417,25.238253 L6.99438604,24.5628412 C7.06140542,24.3831085 7.13103594,24.203811 7.20675913,24.0162449 L7.58668068,24.168996 C7.51269824,24.3535157 7.4439381,24.5297669 7.37952987,24.701231 L7.14931395,25.3714206 C6.94869101,25.9545726 6.78027218,26.4968169 6.63404808,27.0290519 L6.46301811,27.651806 L6.46301811,27.651806 Z M63.956941,29.5744669 C63.9138571,29.3429468 63.8690324,29.1175194 63.8220318,28.8960087 L63.6932154,28.3350513 C63.5556951,27.7436307 63.4081654,27.177451 63.2541079,26.652179 L63.0682814,26.0255082 L63.4586476,25.9027852 L63.64665,26.5372894 C63.8028834,27.0695244 63.9530243,27.6435375 64.0922853,28.2427914 L64.2219722,28.8076655 C64.2707135,29.0357041 64.3159734,29.264613 64.3594924,29.5000497 L63.956941,29.5744669 L63.956941,29.5744669 Z M5.68707297,32.048511 L5.27929922,32.0093441 L5.33239249,31.532378 C5.39767111,30.9644576 5.48079254,30.3943612 5.5865439,29.7885794 L5.68794335,29.2210942 C5.74799968,28.915157 5.80849119,28.6253217 5.86985309,28.3485421 L6.26979341,28.4373205 C6.2088667,28.7110538 6.14924557,28.9974075 6.08962443,29.2998632 L5.98996574,29.8586447 C5.88551996,30.4565931 5.8037041,31.0192913 5.73973105,31.5789431 L5.68707297,32.048511 L5.68707297,32.048511 Z M64.4386972,34.0181722 C64.4339101,33.8706435 64.4282526,33.7196332 64.4212895,33.5651414 L64.3755945,32.9262854 C64.3346866,32.3466149 64.2768062,31.7634629 64.2023886,31.1929313 L64.0953316,30.3808704 L64.4991887,30.312981 L64.6088568,31.1402735 C64.6841448,31.7186385 64.7428955,32.3096239 64.7842386,32.8975629 L64.8299337,33.5412061 C64.8377671,33.7030961 64.8434246,33.8554119 64.8482117,34.0046814 L64.4386972,34.0181722 L64.4386972,34.0181722 Z M5.17441824,36.5366055 L5.16179771,36.2502518 C5.1387326,35.7489151 5.12872321,35.3437551 5.12872321,34.9764563 C5.12872321,34.9116133 5.13046398,34.8476407 5.13307512,34.783668 C5.13742703,34.658769 5.14047336,34.5612869 5.14177894,34.4624992 L5.15657542,33.8893565 C5.17137191,33.5024744 5.18877954,33.1543239 5.21053908,32.8314144 L5.61918321,32.8588312 C5.59742367,33.1778241 5.58001604,33.5216226 5.56608994,33.9045881 L5.55129345,34.4668511 C5.54998788,34.5691203 5.54694154,34.6705191 5.54302482,34.7719179 C5.53997849,34.8572148 5.53780254,34.9164004 5.53780254,34.9764563 C5.53780254,35.3376624 5.54824711,35.7367299 5.57044184,36.2319739 L5.58306238,36.5183276 L5.17441824,36.5366055 L5.17441824,36.5366055 Z M64.6515054,38.532378 L64.2454725,38.4832017 C64.2589634,38.3683121 64.2715839,38.2551632 64.2837692,38.1433199 L64.3346866,37.5706124 C64.3834279,37.0026919 64.4165024,36.4121417 64.4330397,35.8172397 L64.4482714,35.2619397 C64.4482714,35.1853466 64.4504473,35.1044016 64.4530585,35.0234566 L64.4552344,34.9686229 L64.4547992,34.8319739 L64.8643137,34.8289276 L64.8647489,34.9764563 L64.862573,35.038253 C64.8599618,35.1139758 64.8573507,35.1901337 64.8573507,35.2675971 L64.8425542,35.8285546 C64.8255818,36.4317252 64.7920721,37.0296736 64.7424603,37.6062978 L64.6911078,38.1833572 C64.6789225,38.3004228 64.6658667,38.4157476 64.6515054,38.532378 L64.6515054,38.532378 Z M5.74930525,41.0351445 L5.70317503,40.827995 C5.60351634,40.3201306 5.51343185,39.7770159 5.42682889,39.1625303 L5.3554576,38.5924339 C5.30236433,38.1537644 5.26102121,37.7468635 5.22925228,37.3612869 L5.63702603,37.3277774 C5.66879496,37.7081318 5.70970289,38.1102456 5.76149059,38.5436929 L5.83242669,39.1050855 C5.91772408,39.712608 6.00650299,40.2487597 6.10398573,40.7444389 L6.14881037,40.9463662 L5.74930525,41.0351445 L5.74930525,41.0351445 Z M63.7732905,42.9773889 L63.3790076,42.8672863 L63.5752787,42.1313833 C63.7075767,41.6000187 63.8307357,41.0307927 63.9408389,40.4389369 L64.0431088,39.8597016 C64.0761833,39.6634318 64.1066466,39.4732546 64.134934,39.2882997 L64.5396614,39.3496612 C64.511374,39.5372272 64.4800403,39.7295804 64.4469658,39.9280261 L64.3433904,40.5142244 C64.2315464,41.1139136 64.1070818,41.6914081 63.9726078,42.2306062 L63.7732905,42.9773889 L63.7732905,42.9773889 Z M6.99743237,45.3883307 C6.79506867,44.8469568 6.60793664,44.2960087 6.44082338,43.7515884 L6.28241394,43.1945477 C6.14924557,42.725415 6.03392001,42.2815232 5.92903904,41.8371961 L6.32723859,41.7431955 C6.43081399,42.1814299 6.54483397,42.6196643 6.67626159,43.0827044 L6.83336545,43.6353932 C6.99699718,44.1680634 7.18151807,44.7111781 7.38127063,45.2447187 L6.99743237,45.3883307 L6.99743237,45.3883307 Z M62.2409838,47.2108984 L62.0434072,47.152148 L61.8584511,47.06424 L62.1369732,46.4427914 C62.3449944,45.9532048 62.5417006,45.4462108 62.7375364,44.8974386 L62.9207518,44.359111 C63.0030028,44.111489 63.078726,43.8747467 63.1492269,43.6471433 L63.5404634,43.7685608 C63.4690921,43.9983401 63.3924986,44.2376935 63.3093771,44.4879266 L63.1226803,45.0345228 C62.9251037,45.5911284 62.7253511,46.1055207 62.5121076,46.6068573 L62.2409838,47.2108984 L62.2409838,47.2108984 Z M8.90139199,49.4999876 C8.6228699,49.001262 8.3822094,48.5460553 8.16722516,48.1069506 L7.920472,47.5860305 C7.70896928,47.1356108 7.50617038,46.6673485 7.29988996,46.1551321 L7.6798115,46.0023811 C7.88304559,46.5071993 8.08323334,46.9684986 8.29168972,47.4128256 L8.53452617,47.9263475 C8.74689927,48.3589245 8.98364304,48.8080385 9.25868361,49.3002362 L8.90139199,49.4999876 L8.90139199,49.4999876 Z M60.0593725,51.2141933 L59.7164421,50.9905067 L59.9505748,50.621032 C60.3122183,50.0474541 60.5959627,49.5683121 60.8444566,49.1139758 L61.1073118,48.6126391 C61.2448321,48.3502207 61.3801764,48.0804041 61.5129096,47.8058004 L61.8815162,47.9842275 C61.7474774,48.2627479 61.609522,48.5364812 61.4698257,48.8028163 L61.2052297,49.3076344 C60.9510783,49.7724153 60.6629821,50.2580852 60.2974218,50.8390612 L60.0593725,51.2141933 L60.0593725,51.2141933 Z M11.401563,53.27742 C11.127828,52.925788 10.8466947,52.5458688 10.5668671,52.1485421 L10.16301,51.5753994 C9.89449732,51.1745912 9.62467905,50.7437551 9.3109065,50.2154367 L9.66254064,50.0061113 C9.97326685,50.5279018 10.2391684,50.9530805 10.5007181,51.3434442 L10.9015288,51.912235 C11.1778749,52.3047746 11.4550914,52.6794716 11.7244745,53.0263164 L11.401563,53.27742 L11.401563,53.27742 Z M57.3150595,54.8158098 L57.006074,54.5464283 L57.184067,54.3431955 C57.5618126,53.909313 57.9365119,53.4532359 58.2981554,52.9880199 L58.6628453,52.518452 C58.8621626,52.2499409 59.0623504,51.9679391 59.2660197,51.6694001 L59.6041629,51.8996145 C59.3974473,52.2033758 59.1942132,52.4897296 58.9888032,52.766074 L58.6215022,53.2391234 C58.2550715,53.7104321 57.8755852,54.1721666 57.4926173,54.6125769 L57.3150595,54.8158098 L57.3150595,54.8158098 Z M14.4383241,56.6388126 C14.1611076,56.3729127 13.8738817,56.0865589 13.5705537,55.7740939 L13.1645208,55.3476096 C12.7745898,54.9302642 12.4273076,54.5416413 12.1030905,54.1586758 L11.9129121,53.9210631 L12.2327773,53.6651725 L12.4194742,53.8984333 C12.7354227,54.2718247 13.0779178,54.6556606 13.4634968,55.0673485 L13.8643075,55.4890457 C14.164154,55.797594 14.4474631,56.0800311 14.7216333,56.3428847 L14.4383241,56.6388126 L14.4383241,56.6388126 Z M54.0585269,57.9670065 L53.7948013,57.6536711 L53.8709597,57.5896985 C54.2752519,57.2519925 54.70435,56.8698974 55.1834951,56.4207833 L55.59388,56.0269381 C55.9159211,55.7122972 56.2027119,55.4215915 56.4625207,55.1474231 L56.759756,55.4289897 C56.4969008,55.7070749 56.2061934,56.0008269 55.8802355,56.3193845 L55.4637579,56.7197575 C54.9785202,57.1740939 54.5433295,57.5609761 54.1338149,57.9034691 L54.0585269,57.9670065 L54.0585269,57.9670065 Z M17.9524896,59.5019148 C17.6491616,59.2921542 17.3710747,59.092838 17.1125714,58.898309 L16.634732,58.5249176 C16.1555869,58.1497855 15.6977662,57.7703015 15.2747608,57.396475 L15.0488968,57.1958533 L15.3200206,56.8899161 L15.5458846,57.0896674 C15.9627974,57.4578365 16.4145254,57.8320982 16.8875778,58.2024433 L17.3615005,58.5736587 C17.6126056,58.7625303 17.8867758,58.9588001 18.1848815,59.1650793 L17.9524896,59.5019148 L17.9524896,59.5019148 Z M50.3624517,60.589885 L50.150949,60.2386882 C50.6383627,59.9453715 51.1162022,59.6394343 51.5701061,59.3304507 L52.0314083,59.0027541 C52.4174226,58.7285856 52.7973441,58.4452782 53.1607284,58.1606652 L53.4135742,58.4827044 C53.0445324,58.7716693 52.6593886,59.0588934 52.2690225,59.3361082 L51.8042388,59.6664159 C51.3398902,59.9823624 50.8559581,60.2917812 50.3624517,60.589885 L50.3624517,60.589885 Z M21.8574564,61.7975319 C21.5872029,61.6656699 21.3221717,61.5303264 21.0575757,61.3910662 L20.5544952,61.1234256 C20.0631648,60.8501274 19.5674825,60.5541996 19.0378554,60.2182344 L18.658369,59.9784458 L18.7471479,59.7917501 L18.8594272,59.620286 L19.2571915,59.8722599 C19.7798556,60.2038732 20.2690101,60.4963196 20.7538126,60.765701 L21.2490597,61.0289897 C21.5093038,61.1665092 21.7712886,61.2992415 22.0376254,61.4293628 L21.8574564,61.7975319 L21.8574564,61.7975319 Z M46.3095201,62.6178614 L46.1550274,62.2388126 C46.6642006,62.031663 47.1141878,61.8345228 47.5311006,61.6352067 L48.0607278,61.3797513 C48.5002704,61.1625925 48.9667949,60.9149705 49.4463752,60.6447187 L49.6474333,61.0011377 C49.16089,61.2753062 48.688708,61.5259745 48.2430727,61.74705 L47.7073529,62.0046814 C47.2830419,62.207479 46.8260916,62.4081007 46.3095201,62.6178614 L46.3095201,62.6178614 Z M26.0653159,63.4782282 C25.8411927,63.4077277 25.6157639,63.3341809 25.3846776,63.2562823 L24.8302445,63.0669754 C24.3154138,62.8824557 23.7762125,62.667908 23.1778252,62.4107118 L22.600327,62.1487286 L22.7757089,61.7788188 L23.3436328,62.0364501 C23.93027,62.288424 24.4620731,62.4994902 24.9655888,62.6805284 L25.5165404,62.8685297 C25.7437099,62.945558 25.9665276,63.0182344 26.1876045,63.0869941 L26.0653159,63.4782282 L26.0653159,63.4782282 Z M41.9989555,64.0104632 L41.9036488,63.6122661 C42.3275246,63.5104321 42.7566227,63.396848 43.2157489,63.2654212 L43.8241456,63.0904756 C44.3211335,62.9338079 44.8372697,62.7532048 45.3964899,62.5395275 L45.5209544,62.9290208 L45.5192137,62.929456 C44.9756604,63.1387815 44.4521259,63.3219956 43.9425175,63.4821449 L43.3288985,63.6588312 C42.8636796,63.7924339 42.4284888,63.9073236 41.9989555,64.0104632 L41.9989555,64.0104632 Z M30.4790207,64.4978738 C30.2984165,64.4704569 30.1152012,64.4399938 29.9267636,64.4073547 L29.3531822,64.3055207 C28.7530541,64.190631 28.2316956,64.0774821 27.7599488,63.9604165 L26.8551872,63.7127945 L26.966596,63.3185141 L27.8635242,63.5639602 C28.3230856,63.6784147 28.8370459,63.790258 29.4306461,63.9034069 L29.9963941,64.0035002 C30.1822206,64.0361393 30.36326,64.065732 30.541253,64.0931489 L30.4790207,64.4978738 L30.4790207,64.4978738 Z M37.5265,64.7315698 L37.4912496,64.3237986 C37.8807453,64.2902891 38.2758985,64.248511 38.6723573,64.1988996 L39.2859763,64.1214361 C39.8404093,64.040056 40.3421843,63.9538887 40.8152367,63.8594529 L41.1076848,63.7937395 L41.1973341,64.1936773 L40.8996637,64.2602611 C40.4157315,64.3568729 39.9074287,64.4439105 39.3412455,64.5274666 L38.7232746,64.6049301 C38.3215935,64.6558471 37.9207828,64.6980603 37.5265,64.7315698 L37.5265,64.7315698 Z M34.9967361,64.8451539 C34.9614856,64.8451539 34.9262352,64.8438483 34.8918551,64.8425427 C34.7787055,64.8381909 34.6947137,64.8347094 34.6107219,64.833839 L34.0262607,64.8203482 C33.3634651,64.7985887 32.7829206,64.7637737 32.2519879,64.7145975 L31.6666563,64.6554119 C31.5439325,64.6423562 31.4203383,64.6275598 31.2958738,64.6123283 L31.3463559,64.2058626 C31.4682093,64.2210942 31.5900627,64.2350202 31.7110458,64.248511 L32.2894143,64.3068262 C32.8125136,64.3555673 33.3847895,64.389512 34.0397516,64.4108362 L34.6159441,64.424327 C34.7038527,64.4256326 34.7904556,64.4286789 34.8770586,64.4317252 L34.9967361,64.4356419 C35.4284453,64.4356419 35.8627657,64.4256326 36.3258087,64.4047435 L36.6787484,64.3816786 L36.705295,64.7907554 L36.3480034,64.8133851 C35.8753862,64.8347094 35.434538,64.8451539 34.9967361,64.8451539 L34.9967361,64.8451539 Z" id="Fill-1" fill="#48e0c3" sketch:type="MSShapeGroup"></path>
        </g>
    </g>
</svg>